<svg xmlns="http://www.w3.org/2000/svg" viewBox="0 0 64 64">
  <circle cx="32" cy="32" r="31" fill="#800020"/>
  <circle cx="32" cy="32" r="27" fill="none" stroke="#FFD700" stroke-width="1.5"/>
  <circle cx="32" cy="32" r="23" fill="none" stroke="#FFD700" stroke-width="0.6" opacity="0.5"/>

  <path d="M 19 24 Q 16 18 20 14 Q 25 17 25 22 Q 26 19 28 19 Q 29 22 28 25 Z" fill="none" stroke="#FFD700" stroke-width="1.2" stroke-linejoin="round"/>
  <path d="M 45 24 Q 48 18 44 14 Q 39 17 39 22 Q 38 19 36 19 Q 35 22 36 25 Z" fill="none" stroke="#FFD700" stroke-width="1.2" stroke-linejoin="round"/>
  <path d="M 30 18 L 32 14 L 34 18" fill="none" stroke="#FFD700" stroke-width="1.2" stroke-linecap="round"/>

  <path d="M 23 32 Q 26 34 29 32" fill="none" stroke="#FFD700" stroke-width="1.1" stroke-linecap="round"/>
  <path d="M 35 32 Q 38 34 41 32" fill="none" stroke="#FFD700" stroke-width="1.1" stroke-linecap="round"/>
  <path d="M 24 32 L 23.5 30 M 26 33 L 26 31 M 28 32.5 L 28.5 30.5" stroke="#FFD700" stroke-width="0.7" stroke-linecap="round"/>
  <path d="M 36 32.5 L 35.5 30.5 M 38 33 L 38 31 M 40 32 L 40.5 30" stroke="#FFD700" stroke-width="0.7" stroke-linecap="round"/>

  <path d="M 30 41 Q 32 42.5 34 41" fill="none" stroke="#FFD700" stroke-width="1.1" stroke-linecap="round"/>

  <path d="M 20 28 Q 18 38 21 48" fill="none" stroke="#FFD700" stroke-width="1" stroke-linecap="round"/>
  <path d="M 44 28 Q 46 38 43 48" fill="none" stroke="#FFD700" stroke-width="1" stroke-linecap="round"/>

  <circle cx="6" cy="32" r="0.8" fill="#FFD700"/>
  <circle cx="58" cy="32" r="0.8" fill="#FFD700"/>
</svg>
